<?xml version="1.0" encoding="UTF-8"?>
<svg version="1.1" xmlns="http://www.w3.org/2000/svg" width="500" height="500">
<path d="M0 0 C0.96022064 0.00054382 1.92044128 0.00108765 2.90975952 0.00164795 C71.15546507 0.17847778 130.70573514 28.07026492 179.75 74.375 C180.42804688 75.01050781 181.10609375 75.64601563 181.8046875 76.30078125 C186.93325493 81.25209404 191.32659732 86.79671878 195.75 92.375 C196.54535156 93.365 197.34070313 94.355 198.16015625 95.375 C226.45191069 131.2441023 243.84099605 174.16370424 249.75 219.375 C249.83588379 220.03144501 249.92176758 220.68789001 250.01025391 221.36422729 C250.69132641 226.94592468 250.92378508 232.45017388 250.953125 238.0703125 C250.96018463 238.97217789 250.96724426 239.87404327 250.97451782 240.80323792 C251.20396145 278.73010732 251.20396145 278.73010732 247.75 295.375 C247.44400879 296.86555908 247.44400879 296.86555908 247.13183594 298.38623047 C240.12662615 331.51057399 227.83706943 364.82388291 207.75 392.375 C207.31606934 392.97586426 206.88213867 393.57672852 206.43505859 394.19580078 C192.6450218 413.22747077 177.39741415 430.93317287 158.75 445.375 C157.76902344 446.16132813 156.78804688 446.94765625 155.77734375 447.7578125 C116.13510672 479.31335714 64.27960459 500.14376433 13.265625 500.61328125 C11.9375029 500.62804001 11.9375029 500.62804001 10.58255005 500.64309692 C-42.61503159 501.11168298 -93.72110478 489.91084239 -138.25 459.375 C-138.85875977 458.96008301 -139.46751953 458.54516602 -140.09472656 458.11767578 C-160.60563501 444.04145602 -180.03294061 427.12160775 -195.25 407.375 C-196.03165527 406.36735596 -196.03165527 406.36735596 -196.82910156 405.33935547 C-224.76438128 369.10007056 -242.43066798 326.7899188 -248.25 281.375 C-248.33692108 280.70027145 -248.42384216 280.02554291 -248.51339722 279.33036804 C-249.17417901 273.83890612 -249.43739837 268.41915466 -249.48828125 262.890625 C-249.49812042 262.00521027 -249.50795959 261.11979553 -249.51809692 260.20755005 C-249.91184172 215.50653782 -242.86590531 173.10264947 -221.25 133.375 C-220.90501465 132.72660156 -220.5600293 132.07820312 -220.20458984 131.41015625 C-208.75794089 109.93002489 -193.99771926 90.97746729 -177.25 73.375 C-176.53457031 72.61832031 -175.81914062 71.86164063 -175.08203125 71.08203125 C-171.63734312 67.52370393 -171.63734312 67.52370393 -170.25 66.375 C-169.59 66.375 -168.93 66.375 -168.25 66.375 C-168.25 65.715 -168.25 65.055 -168.25 64.375 C-165.28028458 61.61358125 -162.0573533 59.15749691 -158.87060547 56.65136719 C-157.31390638 55.42533181 -155.76802661 54.18559684 -154.22265625 52.9453125 C-123.14779865 28.41459263 -86.87129763 12.19117324 -48.1875 4.1875 C-47.44532227 4.03240967 -46.70314453 3.87731934 -45.93847656 3.7175293 C-30.67432945 0.72631721 -15.51731038 -0.03325318 0 0 Z " fill="#0924CC" transform="translate(249.25,-0.375)"/>
<path d="M0 0 C1.62215675 0.00333092 1.62215675 0.00333092 3.27708435 0.00672913 C4.49827469 0.00680466 5.71946503 0.00688019 6.97766113 0.00695801 C8.32022644 0.0120654 9.66279134 0.01728141 11.00535583 0.02259827 C12.37156116 0.02446252 13.73776716 0.02588639 15.10397339 0.02688599 C18.70596654 0.03071058 22.30791959 0.04054035 25.90989685 0.05158997 C29.58298703 0.06180536 33.25608368 0.06638388 36.92918396 0.07142639 C44.14079081 0.08216268 51.35236459 0.09923838 58.56394958 0.12025452 C56.64868043 5.99343566 54.60770872 11.79874326 52.40379333 17.56947327 C52.10225342 18.36288116 51.8007135 19.15628906 51.49003601 19.97373962 C50.49612759 22.58595584 49.49903031 25.19693869 48.50144958 27.80775452 C48.15280853 28.72185089 47.80416748 29.63594727 47.44496155 30.57774353 C41.21791031 46.8992947 34.87536299 63.1744908 28.49388123 79.43617249 C22.94068315 93.58828093 17.42865949 107.75590285 11.93894958 121.93275452 C6.16696539 136.83632981 0.38079989 151.73413133 -5.43605042 166.62025452 C-11.37483913 181.82003307 -17.28727377 197.0299038 -23.18605042 212.24525452 C-23.58854004 213.28311096 -23.99102966 214.32096741 -24.40571594 215.39027405 C-28.37149204 225.61660783 -32.33308217 235.84447505 -36.27198792 246.08119202 C-37.1093285 248.25471376 -37.94681198 250.42818041 -38.78431702 252.60163879 C-39.54101185 254.56817724 -40.29476692 256.53582474 -41.0483551 258.5035553 C-41.48824768 259.64550354 -41.92814026 260.78745178 -42.38136292 261.96400452 C-42.7579303 262.94562561 -43.13449768 263.9272467 -43.5224762 264.93861389 C-44.43605042 267.12025452 -44.43605042 267.12025452 -45.43605042 268.12025452 C-47.66985971 268.2217826 -49.90696718 268.25108703 -52.14308167 268.25306702 C-52.8439238 268.25438629 -53.54476593 268.25570557 -54.2668457 268.25706482 C-56.59412344 268.25900357 -58.92128455 268.25258449 -61.24855042 268.24525452 C-62.04039734 268.24436829 -62.83224426 268.24348206 -63.64808655 268.24256897 C-81.58670597 268.21913511 -99.50873392 267.72231516 -117.43605042 267.12025452 C-120.16355343 261.10972142 -122.70392036 255.05256408 -125.09620667 248.90150452 C-125.43808014 248.02733383 -125.77995361 247.15316315 -126.13218689 246.25250244 C-127.25644042 243.37591401 -128.37757044 240.49812003 -129.49855042 237.62025452 C-130.29864875 235.570487 -131.0988627 233.52076461 -131.89918518 231.47108459 C-140.38038434 209.73846451 -148.80732667 187.98474896 -157.23170471 166.23005676 C-160.86068271 156.85948825 -164.49166075 147.48969485 -168.12355042 138.12025452 C-168.52016876 137.0970108 -168.91678711 136.07376709 -169.32542419 135.01951599 C-174.6777137 121.21273627 -180.04756994 107.41294729 -185.43605042 93.62025452 C-191.03864534 79.2788343 -196.62379131 64.93071965 -202.19239807 50.57606506 C-203.00435768 48.4830455 -203.8165229 46.39010568 -204.62892151 44.29725647 C-206.86950511 38.52453068 -209.10577124 32.75016767 -211.3349762 26.97303772 C-212.09026649 25.01614923 -212.84650047 23.05962479 -213.60353088 21.10340881 C-214.73868972 18.16764506 -215.86923914 15.23014685 -216.99855042 12.29212952 C-217.34546936 11.39681519 -217.69238831 10.50150085 -218.04981995 9.57905579 C-218.52137512 8.3479306 -218.52137512 8.3479306 -219.00245667 7.0919342 C-219.2803302 6.37060303 -219.55820374 5.64927185 -219.84449768 4.90608215 C-220.43605042 3.12025452 -220.43605042 3.12025452 -220.43605042 1.12025452 C-200.63605042 1.12025452 -180.83605042 1.12025452 -160.43605042 1.12025452 C-155.93640868 10.11953799 -155.93640868 10.11953799 -154.21632385 14.61024475 C-153.82718307 15.62009933 -153.4380423 16.62995392 -153.03710938 17.67041016 C-152.62735367 18.74569473 -152.21759796 19.82097931 -151.79542542 20.92884827 C-151.35638382 22.07096268 -150.91734222 23.21307709 -150.46499634 24.38980103 C-149.28092314 27.47152865 -148.10025355 30.55453411 -146.92091751 33.63807678 C-145.68134063 36.8761972 -144.43699184 40.11248142 -143.19264221 43.34877014 C-142.94410712 43.99518778 -142.69557203 44.64160542 -142.43950558 45.30761147 C-141.93771848 46.61268528 -141.43591383 47.91775236 -140.93409157 49.22281265 C-140.18186898 51.17956412 -139.43014428 53.13650624 -138.67852783 55.0934906 C-134.57187949 65.78350894 -130.42220415 76.45624758 -126.24855042 87.12025452 C-124.97337691 90.38050164 -123.69867388 93.64093238 -122.42433167 96.90150452 C-122.10632599 97.71514969 -121.78832031 98.52879486 -121.4606781 99.36709595 C-116.46020247 112.16968184 -111.50283977 124.98907471 -106.54127502 137.80677795 C-102.61911406 147.9355309 -98.68210427 158.05804793 -94.70948792 168.16712952 C-93.96011159 170.07662398 -93.21076204 171.98612896 -92.46144104 173.89564514 C-91.06102534 177.46385779 -89.65530178 181.02991684 -88.24659729 184.59486389 C-87.61944404 186.19179052 -86.99247967 187.78879135 -86.36573792 189.38587952 C-86.08128815 190.1012085 -85.79683838 190.81653748 -85.50376892 191.55354309 C-84.13643667 195.05111823 -83.01983575 198.40525696 -82.43605042 202.12025452 C-81.77605042 202.12025452 -81.11605042 202.12025452 -80.43605042 202.12025452 C-80.33147522 201.46001282 -80.22690002 200.79977112 -80.11915588 200.11952209 C-79.25379333 196.32002999 -77.90056611 192.76087515 -76.50636292 189.13197327 C-76.20459137 188.33805679 -75.90281982 187.54414032 -75.59190369 186.72616577 C-74.58603774 184.08498547 -73.57380843 181.44629908 -72.56105042 178.80775452 C-71.84425274 176.93210378 -71.12745588 175.05645273 -70.41065979 173.18080139 C-64.63288206 158.09702451 -58.6936698 143.07868246 -52.72273254 128.07054138 C-46.843556 113.28907976 -41.10189165 98.46283715 -35.47688293 83.58296204 C-29.12931522 66.80364509 -22.54668039 50.12097476 -15.90480042 33.45619202 C-15.14159391 31.53959928 -14.37856821 29.62293453 -13.61573792 27.70619202 C-13.25284668 26.79496582 -12.88995544 25.88373962 -12.5160675 24.94490051 C-9.9909769 18.58103566 -7.54937505 12.18980943 -5.20506287 5.75706482 C-3.14674865 0.15533781 -3.14674865 0.15533781 0 0 Z " fill="#FDFDFE" transform="translate(331.43605041503906,121.87974548339844)"/>
</svg>
