<svg xmlns="http://www.w3.org/2000/svg" width="512" height="512" xmlns:v="https://vecta.io/nano"><path d="M279.063 24L286 29l6.533 4.721 4.292 3.117c13.691 9.842 26.763 10.197 42.988 8.162 29.111-3.534 29.111-3.534 40.754 4.848 8.822 7.802 12.97 19.384 17.401 29.991 7.933 18.833 17.185 26.875 35.539 35.05l11.744 5.361 2.055.924c6.319 2.914 12.175 6.219 16.008 12.201l1.426 2.148c2.944 5.778 3.591 11.391 3.512 17.789l-.012 2.356c-.081 5.577-.558 11.048-1.238 16.581-2.701 22.04 1.687 34.713 15 52.188 9.58 12.786 15.217 22.118 14 38.563-1.892 8.784-7.812 15.877-13 23l-4.721 6.533-3.117 4.292c-9.842 13.691-10.197 26.763-8.162 42.988 3.525 29.031 3.525 29.031-4.84 40.77-8.128 9.098-21.533 13.545-32.547 18.32-20.309 8.944-27.236 22.193-35.748 41.727-4.646 10.576-9.577 19.403-19.865 25.371-5.157 1.783-9.897 2.317-15.312 2.25l-2.359-.012c-5.557-.08-11.004-.558-16.516-1.238-21.424-2.611-34.536 1.322-51.678 14.473C275.678 491.028 265.219 497.188 249 496c-8.784-1.889-15.878-7.813-23-13l-6.533-4.721-4.292-3.117c-13.691-9.842-26.763-10.197-42.988-8.162-29.031 3.525-29.031 3.525-40.77-4.84-9.098-8.128-13.545-21.533-18.32-32.547-9.057-20.572-22.613-27.668-42.544-36.156C60.196 389.004 51.786 383.975 46 374c-1.783-5.157-2.317-9.897-2.25-15.312l.012-2.356c.081-5.577.558-11.048 1.238-16.581 2.701-22.04-1.687-34.713-15-52.187-9.58-12.786-15.217-22.118-14-38.562 1.892-8.784 7.812-15.877 13-23l4.721-6.533 3.117-4.292C46.631 201.553 47.021 188.44 45 172.25c-3.525-29.187-3.525-29.187 4.848-40.816 7.802-8.822 19.384-12.97 29.991-17.401 18.833-7.933 26.875-17.185 35.05-35.539l5.361-11.744.924-2.055c2.914-6.319 6.219-12.175 12.201-16.008l2.148-1.426c5.778-2.944 11.391-3.591 17.789-3.512l2.359.012c5.557.08 11.004.558 16.516 1.238 23.847 2.907 37.132-3.336 55.883-17.642 16.915-12.756 32.811-15.757 50.992-3.358z" fill="#2568ef"/><path d="M355.563 178.688c6.359 3.87 12.064 10.193 14.438 17.313.199 2.182.312 4.372.375 6.563l.148 3.504c-1.452 10.911-8.879 18.018-16.365 25.438l-3.313 3.345-8.976 8.987-7.52 7.53-17.772 17.764-18.252 18.285-15.728 15.756-9.367 9.387-8.833 8.816-3.212 3.224c-7.618 7.716-16.045 15.299-27.371 16.026-16.032-1.202-27.705-17.324-38.395-27.934l-2.06-2.043-10.755-10.694-8.859-8.777-10.772-10.691-4.082-4.036c-15.72-15.458-15.72-15.458-17.519-26.207.173-8.779 1.204-14.261 6.941-20.93 7.433-6.396 12.337-8.711 22.34-8.578 13.596 1.079 23.055 13.819 32.074 22.895l2.648 2.652 8.251 8.282 5.645 5.658L233 274c3.21-1.413 5.343-3.101 7.806-5.586l2.251-2.256 2.44-2.476 2.593-2.607 5.57-5.616 8.829-8.889 21.937-22.086 17.039-17.151 8.754-8.827 6.765-6.8 2.416-2.458c9.705-9.689 22.161-17.212 36.161-10.56z" fill="#fdfaee"/></svg>